<svg width="120" height="120" viewBox="0 0 120 120" fill="none" xmlns="http://www.w3.org/2000/svg">
  <!-- Shell -->
  <ellipse cx="60" cy="58" rx="32" ry="24" stroke="currentColor" stroke-width="2.5" fill="none"/>
  <!-- Shell pattern -->
  <path d="M60 34V82" stroke="currentColor" stroke-width="1.5" opacity="0.5"/>
  <path d="M38 46C38 46 48 58 60 58C72 58 82 46 82 46" stroke="currentColor" stroke-width="1.5" opacity="0.5"/>
  <path d="M38 70C38 70 48 58 60 58C72 58 82 70 82 70" stroke="currentColor" stroke-width="1.5" opacity="0.5"/>
  <!-- Head -->
  <circle cx="96" cy="58" r="8" stroke="currentColor" stroke-width="2"/>
  <circle cx="99" cy="56" r="2" fill="currentColor"/>
  <!-- Legs -->
  <ellipse cx="38" cy="76" rx="6" ry="4" stroke="currentColor" stroke-width="2" transform="rotate(-30 38 76)"/>
  <ellipse cx="82" cy="76" rx="6" ry="4" stroke="currentColor" stroke-width="2" transform="rotate(30 82 76)"/>
  <ellipse cx="38" cy="44" rx="6" ry="4" stroke="currentColor" stroke-width="2" transform="rotate(30 38 44)"/>
  <ellipse cx="82" cy="44" rx="6" ry="4" stroke="currentColor" stroke-width="2" transform="rotate(-30 82 44)"/>
  <!-- Tail -->
  <path d="M28 58C24 58 22 60 20 58" stroke="currentColor" stroke-width="2" stroke-linecap="round"/>
  <!-- Slow indicator dots -->
  <circle cx="108" cy="58" r="1.5" fill="currentColor" opacity="0.3"/>
  <circle cx="112" cy="58" r="1.5" fill="currentColor" opacity="0.2"/>
  <circle cx="116" cy="58" r="1.5" fill="currentColor" opacity="0.1"/>
</svg>
